<?xml version="1.0" encoding="utf-8"?>
<!-- Generator: Adobe Illustrator 28.3.0, SVG Export Plug-In . SVG Version: 6.00 Build 0)  -->
<svg version="1.1" id="Layer_1" xmlns="http://www.w3.org/2000/svg" xmlns:xlink="http://www.w3.org/1999/xlink" x="0px" y="0px"
	 viewBox="0 0 199.4 199.4" style="enable-background:new 0 0 199.4 199.4;" xml:space="preserve">
<style type="text/css">
	.st0{fill:#FFFFFF;}
</style>
<g>
	<g id="Layer_2_00000047023443143363029330000004427964876150607511_">
	</g>
	<g id="Layer_1_00000168807787195311752580000002823974854173527175_">
		<g>
			<circle cx="99.7" cy="99.7" r="99.7"/>
		</g>
	</g>
	<g>
		<path class="st0" d="M79.5,144c-3.4,0-6.7-0.4-9.9-1.2c-3.2-0.8-6.2-2.2-8.8-4.2c-2.3-1.9-3.9-4.6-4.8-8.2c-1-3.5-1.4-7-1.4-10.3
			c0-1.5,0.1-2.8,0.3-4.2c0.2-1.3,0.4-2.4,0.5-3.3c1.5-6.7,4.4-13,8.5-18.9c4.1-5.9,9.4-11.7,15.9-17.6c0.7-0.7,1.5-1.4,2.2-2
			c0.7-0.6,1.5-1.3,2.2-1.9c0.5-0.3,0.9-0.4,1.4-0.5c0.5,0,0.9-0.1,1.2-0.1c0.5,0,0.9,0,1.2-0.1c0.4,0,0.6-0.2,0.8-0.3
			c0.5-0.3,0.7-0.9,0.9-1.9c0.1-1,0.5-1.7,1-2.2c2.6-1.9,5.7-3.5,9.3-4.8c3.5-1.3,6.8-2.5,9.8-3.7c2.5-1,5.7-1.8,9.3-2.3
			c3.7-0.5,7.2-0.8,10.7-0.8c3.5,0,6.4,0.3,8.7,0.8c2,0.5,3.3,1.2,4,2.1c0.7,1,1.1,2,1.3,3.1c0.2,1.1,0.4,2.1,0.7,3.1
			c0.1,0.3,0.2,0.5,0.2,0.8c0,0.3,0.1,0.6,0.1,1c0,1.5-0.4,2.7-1.3,3.8c-0.9,1.1-1.7,1.6-2.7,1.6c-1,0-1.7-0.7-2.2-2
			c-0.2-0.5-0.5-1-0.9-1.8c-0.4-0.7-0.7-1.4-0.9-1.9c-0.5-1-1.1-1.7-2-2c-0.9-0.3-2.1-0.5-3.5-0.5h-0.1c-0.8,0-1.7-0.1-2.7-0.3
			c-1-0.2-2.1-0.3-3.3-0.3c-1.7,0-3.6,0.2-5.6,0.5c-2,0.4-4.1,1-6.4,2c-7,3.1-13.7,6.5-20.1,10.1c-6.4,3.7-11.7,7.9-16,12.7
			c-0.5,0.7-0.9,1.2-1,1.5s-0.5,0.8-1.2,1.6c-0.5,0.5-1.1,1.3-2,2.3c-0.9,1-1.5,1.8-1.9,2.3c-1.4,1.9-2.4,4-3.1,6.2
			c-0.7,2.2-1.3,4.4-1.8,6.5c-0.5,2.1-1,3.8-1.6,5.2c-0.5,1.2-0.9,2.4-1.2,3.6c-0.2,1.2-0.3,2.5-0.3,3.7c0,2.2,0.3,4.3,0.9,6.3
			c0.6,2,1.2,3.7,2,5c1.5,2.6,3.7,4.4,6.7,5.2c3,0.9,6.1,1.3,9.2,1.3c2.2,0,4.2-0.1,6.1-0.4c1.9-0.3,3.2-0.5,4-0.5
			c0.6-0.2,1.8-0.7,3.4-1.4c1.6-0.8,2.8-1.2,3.4-1.3c0.8-0.2,1.8-0.4,3-0.7c1.2-0.3,2.2-0.6,3.1-1c4.4-1.6,8.1-3.5,10.8-5.7
			c2.8-2.2,5.5-4.5,8.2-6.9c2.4-2.1,4.3-3.6,5.8-4.4c1.5-0.9,2.6-1.3,3.2-1.3c0.6,0,1,0.3,1,0.8c0,0.5-0.4,1.3-1.2,2.3
			c-0.8,1-1.9,2-3.5,3c-3.5,2.5-6.9,5.2-10.5,8.3c-3.5,3.1-7.4,5.5-11.7,7.2c-1.2,0.5-2.3,1-3.3,1.8c-1,0.7-2.1,1.3-3.4,1.6
			c-1.5,0.4-4.1,1-8,1.9C88.3,143.5,84.1,144,79.5,144z"/>
	</g>
</g>
</svg>
